<svg width="24" height="24" viewBox="0 0 24 24" fill="none" xmlns="http://www.w3.org/2000/svg">
<path fill-rule="evenodd" clip-rule="evenodd" d="M24 20L17.545 24L12 20L6.455 24L0 20V0L6.455 4L12 0L17.545 4L24 0V20ZM12.5 7H11.5V1.594L7 4.84V9H6V4.894L1 1.796V19.443L6 22.542V16H7V22.374L11.5 19.128V14H12.5V19.128L17 22.374V17H18V22.542L23 19.443V1.796L18 4.894V8H17V4.84L12.5 1.594V7V7ZM20.672 14.016L19.376 12.742L20.649 11.449L19.941 10.747L18.669 12.041L17.375 10.77L16.672 11.472L17.968 12.748L16.695 14.044L17.398 14.747L18.675 13.449L19.97 14.724L20.672 14.016V14.016ZM6.57 13.41C6.197 13.41 5.829 13.344 5.478 13.215L5.885 12.11C6.106 12.191 6.336 12.232 6.57 12.232C6.83 12.232 7.084 12.182 7.324 12.083L7.772 13.173C7.389 13.33 6.985 13.41 6.57 13.41ZM3.969 11.036C3.434 11.036 3 11.469 3 12.004C3 12.538 3.434 12.972 3.969 12.972C4.504 12.972 4.938 12.538 4.938 12.004C4.938 11.469 4.504 11.036 3.969 11.036V11.036ZM15.24 12.627L13.581 11.682L14.164 10.658L15.824 11.603L15.24 12.627ZM8.785 12.607L8.18 11.596L9.818 10.615L10.424 11.625L8.785 12.607ZM12.703 11.199C12.46 11.098 12.203 11.046 11.94 11.046C11.709 11.046 11.483 11.086 11.266 11.164L10.864 10.056C11.21 9.931 11.572 9.868 11.94 9.868C12.359 9.868 12.77 9.95 13.156 10.111L12.703 11.199V11.199Z" fill="#43494E"/>
</svg>
